<svg xmlns="http://www.w3.org/2000/svg" xmlns:xlink="http://www.w3.org/1999/xlink">
  <defs>
    <clipPath id="clip0">
      <path fill="#fff" d="M0 0h128v24H0z" />
    </clipPath>
    <clipPath id="clip0">
      <path transform="translate(0 .32)" d="M0 0h20v20.07H0z" />
    </clipPath>
  </defs>
  <symbol id="footer-logo">
    <g clip-path="url(#clip0)" fill="#111">
      <path d="M1.6 22.05A9.5 9.5 0 010 16.31V7.79a9.63 9.63 0 011.5-5.84C2.6.62 4.3 0 6.81 0c2.5 0 4.1.62 5.1 1.74a7.49 7.49 0 011.51 5.03v2.05h-4.9V6.46c.03-.7-.07-1.4-.3-2.05a1.46 1.46 0 00-.59-.63 1.41 1.41 0 00-.82-.19c-.7 0-1.2.2-1.4.72-.23.73-.33 1.49-.3 2.25v10.98c-.05.74.08 1.48.4 2.15.2.52.7.72 1.4.72s1.1-.2 1.3-.72c.23-.7.33-1.42.3-2.15v-2.46h4.91v2.05a7.98 7.98 0 01-1.5 5.13c-1 1.23-2.7 1.84-5.1 1.84-2.41-.1-4.22-.72-5.22-2.05zM19.33.3h5.7l4.22 23.4h-4.61l-.8-4.93h-3.3l-.8 4.92h-4.72L19.33.31zm4.1 15.4l-1.2-9.14-1.2 9.13h2.4zM32.75 4.2h-3.4V.3h11.91v3.8h-3.4v19.6h-5.1V4.2zM50.38.3h8.81v2.47h-5.7v7.7h4.6v2.35h-4.6v8.62h5.7v2.35h-8.91V.31h.1zM61.8.3H64l6.51 15.5V.3h2.6v23.4h-2l-6.6-16v16H61.8V.3zM76.12.3h8.81v2.47h-5.7v7.7h4.6v2.35h-4.6v8.62h5.7v2.35h-8.81V.31zM87.54.3h4.6a7.87 7.87 0 015.11 1.44c1.1.93 1.6 2.57 1.6 4.72 0 2.98-.9 4.82-2.8 5.44l3.2 11.69h-3.1l-3-10.97h-2.5v10.97h-3.21V.31h.1zm4.4 10.06a4.3 4.3 0 002.9-.82c.6-.51.91-1.54.91-3.08a6.77 6.77 0 00-.3-2.25 2.58 2.58 0 00-1.1-1.24 4.47 4.47 0 00-2.2-.4h-1.4v7.69h1.2v.1zM102.86 21.95a10.57 10.57 0 01-1.4-5.95V8.2c-.03-1.48.14-2.96.5-4.4a5.2 5.2 0 011.9-2.67c1.12-.68 2.41-1 3.7-.92 2.11 0 3.61.5 4.52 1.64a7.98 7.98 0 011.4 5.12v.82h-3v-.71c0-.86-.07-1.72-.2-2.57a2.06 2.06 0 00-.8-1.33 3.04 3.04 0 00-1.91-.51 2.96 2.96 0 00-2 .61 2.3 2.3 0 00-.8 1.64c-.14.92-.2 1.85-.2 2.77v8.72a9.53 9.53 0 00.6 3.9c.4.82 1.2 1.13 2.4 1.13a2.37 2.37 0 002.4-1.23c.53-1.3.77-2.7.7-4.1v-1.65h-2.9V12.1h5.8v11.6h-2l-.3-2.67c-.26.89-.8 1.67-1.55 2.2-.74.55-1.64.81-2.55.77a4.9 4.9 0 01-4.3-2.05zM119.99 15.49L115.08.4h3l3.51 11.28 3.4-11.28H128l-4.9 15.08v8.2h-3.01v-8.2h-.1z" />
    </g>
  </symbol>
  <symbol id="icon-arrow-link">
    <path stroke="#000" stroke-width="2" d="M0 6h18" />
    <path d="M24 6l-6.75 5.2V.8L24 6z" fill="#000" />
  </symbol>
  <symbol id="icon_email" viewBox="0 0 19 14">
    <path fill-rule="evenodd" clip-rule="evenodd" d="M-1.21593e-05 13.8477L-1.21593e-05 5.84766H1.29999L1.29999 13.8477H-1.21593e-05Z" fill="#222222" />
    <path fill-rule="evenodd" clip-rule="evenodd" d="M17 13.8477V5.84766H18.3V13.8477H17Z" fill="#222222" />
    <path fill-rule="evenodd" clip-rule="evenodd" d="M18 13.8477H0V12.5477H18V13.8477Z" fill="#222222" />
    <path fill-rule="evenodd" clip-rule="evenodd" d="M18 1.84767H0V0.547668H18V1.84767Z" fill="#222222" />
    <path d="M9.00002 10.3477L0 3.34766V0.847656H3.5L9.00002 0.847656H14H18V3.34766L9.00002 10.3477Z" fill="white" />
    <path fill-rule="evenodd" clip-rule="evenodd" d="M9.00002 8.70074L16.7 2.71185V2.14766L1.3 2.14766V2.71185L9.00002 8.70074ZM0 3.34766L9.00002 10.3477L18 3.34766V0.847656L0 0.847656V3.34766Z" fill="#222222" />
  </symbol>
  <symbol id="icon_facebook">
    <path d="M16.5 1.8h-2.8c-1.2 0-2.3.5-3.2 1.3-.9.9-1.3 2-1.3 3.2V9H6.4v3.6h2.8v7.2h3.6v-7.2h2.8l.9-3.6h-3.7V6.3l.3-.6c.2-.2.4-.3.7-.3h2.7V1.8z" stroke-width="1.1" stroke-linecap="round" stroke-linejoin="round" />
  </symbol>
  <symbol id="icon_instagram">
    <path d="M8 0l3.3.1a6 6 0 011.9.4 4 4 0 012.3 2.3l.4 2a91.9 91.9 0 010 6.5 6 6 0 01-.4 1.9 4 4 0 01-2.3 2.3 6 6 0 01-2 .4 91.9 91.9 0 01-6.5 0 6 6 0 01-1.9-.4 4 4 0 01-2.3-2.3 6 6 0 01-.4-2 91.7 91.7 0 010-6.5c0-.7.2-1.3.4-1.9A4 4 0 012.8.5a6 6 0 012-.4H8zm0 1a98.8 98.8 0 00-5 .4c-.7.4-1.3.9-1.6 1.6a98.8 98.8 0 000 10c.3.7.9 1.2 1.6 1.5a98.7 98.7 0 0010 0c.7-.3 1.2-.8 1.5-1.6a98.7 98.7 0 000-10c-.3-.6-.8-1.2-1.6-1.5a98.8 98.8 0 00-5-.3zm0 10.2a3 3 0 002.2-1 3 3 0 001-2.2 3 3 0 00-1-2.3A3 3 0 008 4.8a3 3 0 00-2.3 1A3 3 0 004.8 8a3 3 0 001 2.2 3 3 0 002.2 1zm0-7.3a4 4 0 012.9 1.2A4 4 0 0112 8a4 4 0 01-1.1 2.9 4 4 0 01-3 1.1A4 4 0 015.2 11a4 4 0 01-1.2-3c0-1 .4-2 1.2-2.8A4 4 0 018 4zm5.2-.1l-.3.6a1 1 0 01-.7.3c-.3 0-.5 0-.7-.3a.9.9 0 01-.2-.6 1 1 0 01.9-1c.3 0 .5 0 .7.3.2.2.3.4.3.7z" fill="#666" />
  </symbol>
  <symbol id="icon_phone">
    <g clip-path="url(#clip0)">
      <path d="M17.9 9.75H9.4v1.2h8.5l-2.1 2.11.9.9 3.1-3.1a.75.75 0 000-.9l-3.1-3.12-.9.9 2.1 2.01zM8.1 19.79v-6.22a.65.65 0 00-.6-.6H3.1a1.23 1.23 0 001.2 1.2h2.5v5.02H3.1a1.78 1.78 0 01-1.9-1.71V3.43a1.78 1.78 0 011.7-1.8h3.9v5.01H4.4a1.22 1.22 0 00-1.2 1.2h4.4a.65.65 0 00.6-.6V.92a.86.86 0 00-.7-.6H3.1A3 3 0 000 3.23v13.95a2.9 2.9 0 002.9 3.1h4.6a.5.5 0 00.6-.5z" />
    </g>
  </symbol>
  <symbol id="icon_vkontakte">
    <path d="M0 4c0-.6.5-1 1.3-1h3.3c.2 0 .4.1.4.3.4.9.7 1.7 1.2 2.3A28.6 28.6 0 008 8.1l.2-.1v-.2l.1-3.2c0-.2 0-.4-.2-.4a2 2 0 00-.7-.2c-.2 0-.4-.2-.4-.4v-.1c.4-.8 1.2-1.2 2.7-1.2H11c.6 0 1 .1 1.4.3.4.3.5.6.5 1.1V8h.3c.2 0 .4 0 .6-.2a12.7 12.7 0 002.6-4l.5-.4.7-.3h3.8c.3 0 .5.1.6.4l.2.2a1.6 1.6 0 010 .4v.1c0 .5-.3 1-.8 1.6L20 7.6c-.7.6-1 1-1.2 1.3-.2.1-.2.3-.2.4l.1.3 3.2 3.4.3.6c0 .3-.1.5-.4.7-.3.2-.6.3-1 .3H17.2 17h-.1c-.3 0-.6 0-1-.3a182 182 0 01-2.3-2.4 25.6 25.6 0 00-.4 1.6v.4c-.2.4-.5.6-1 .7H9.7a6 6 0 01-3.6-1.4c-1.2-.9-2.3-2-3.2-3.5A32.9 32.9 0 010 4zm13.2 4.7c-.3 0-.6 0-.8-.2-.3-.1-.4-.3-.4-.6V3.7c0-.2 0-.4-.2-.5l-.8-.1H9.8a3 3 0 00-1.4.3c.6.2 1 .6 1 1.2v3.2c-.1.3-.2.6-.5.8l-.9.3c-.4 0-.8-.2-1-.5C6 6.9 5 5.6 4.5 4.3l-.2-.5H1v.5l.5 1c1.2 2.7 2.6 4.8 4 6.3s2.9 2.3 4.2 2.3H12l.2-.1.1-.2v-.2l.5-1.6.3-.5.6-.2c.3 0 .7.2 1 .6l2 2s.1.2.3.2h3.6c.4 0 .6-.1.6-.3v-.2l-3.2-3.3c-.2-.3-.4-.5-.4-.8 0-.3.2-.6.4-.9l1-1.2c.6-.5 1.1-1 1.5-1.6l.8-1.3.1-.3v-.2h-3.5c-.2 0-.4.2-.5.3l-.1.4c-.4.8-1.4 2.1-2.9 3.9-.3.2-.7.3-1 .3z" fill="#666" />
  </symbol>
  <symbol id="logo_html">
    <path d="M13.6 0h-.1L0 1.4V26l13.5 8L27 26V1.4L13.6 0zm11.6 25l-11.7 7-11.7-7V15l11.7 6.8v1.3l-8-4.7v1.2l8 4.8v1.3l-8-4.8v1.2l8 4.9 8.1-4.9V17l3.6-2.1V25zm0-11.5L22 15.3l-1.5 1-7-4.3v1.2l6 3.6-.2.1-.8.5-5-3v1.3l3.9 2.3-1 .6-3-1.7v1.2l2 1.2-2 1.1-11.6-6.8 11.6-7 11.8 6.9zm0-1.3L13.4 5.3l-11.6 7V3l11.7-1.2L25.2 3v9.2z" />
  </symbol>
</svg>
