<svg width="19" height="14" viewBox="0 0 19 14" fill="none" xmlns="http://www.w3.org/2000/svg">
<path fill-rule="evenodd" clip-rule="evenodd" d="M-1.21593e-05 13.8477L-1.21593e-05 5.84766H1.29999L1.29999 13.8477H-1.21593e-05Z" fill="#222222"/>
<path fill-rule="evenodd" clip-rule="evenodd" d="M17 13.8477V5.84766H18.3V13.8477H17Z" fill="#222222"/>
<path fill-rule="evenodd" clip-rule="evenodd" d="M18 13.8477H0V12.5477H18V13.8477Z" fill="#222222"/>
<path fill-rule="evenodd" clip-rule="evenodd" d="M18 1.84767H0V0.547668H18V1.84767Z" fill="#222222"/>
<path d="M9.00002 10.3477L0 3.34766V0.847656H3.5L9.00002 0.847656H14H18V3.34766L9.00002 10.3477Z" fill="white"/>
<path fill-rule="evenodd" clip-rule="evenodd" d="M9.00002 8.70074L16.7 2.71185V2.14766L1.3 2.14766V2.71185L9.00002 8.70074ZM0 3.34766L9.00002 10.3477L18 3.34766V0.847656L0 0.847656V3.34766Z" fill="#222222"/>
</svg>
